<svg height="200px" width="200px" version="1.1" id="Layer_1" xmlns="http://www.w3.org/2000/svg" xmlns:xlink="http://www.w3.org/1999/xlink" viewBox="0 0 503.467 503.467" xml:space="preserve" fill="#000000"><g id="SVGRepo_bgCarrier" strokeWidth="0"></g><g id="SVGRepo_tracerCarrier" strokeLinecap="round" strokeLinejoin="round"></g><g id="SVGRepo_iconCarrier"> <g transform="translate(1 1)"> <path style="fill:#AAB1BA;" d="M395.8,464.067h-68.267h-17.067V498.2H447v-34.133H395.8z M191,464.067V498.2H54.467v-34.133h51.2 h68.267H191z"></path> <path style="fill:#FFD0A1;" d="M447,300.227v-117.76c0-14.507,11.093-25.6,25.6-25.6c14.507,0,25.6,11.093,25.6,25.6v128 c0,28.16-17.067,42.667-17.067,42.667L412.867,421.4c0,0-17.067,17.067-17.067,42.667h-68.267v-76.8 c0-28.16,17.067-42.667,17.067-42.667l59.733-59.733c10.24-10.24,24.747-11.093,34.987-0.853 C444.44,288.28,446.147,294.253,447,300.227L447,300.227z M55.32,300.227c0-5.973,2.56-11.947,6.827-17.067 c10.24-10.24,25.6-8.533,34.987,0.853l59.733,59.733c0,0,17.067,14.507,17.067,42.667v76.8h-68.267 c0-25.6-17.067-42.667-17.067-42.667L20.333,352.28c0,0-17.067-14.507-17.067-42.667v-128c0-14.507,11.093-25.6,25.6-25.6 s25.6,11.093,25.6,25.6L55.32,300.227L55.32,300.227z"></path> <path style="fill:#FFE079;" d="M250.733,3.267c70.827,0,128,57.173,128,128s-57.173,128-128,128s-128-57.173-128-128 S179.907,3.267,250.733,3.267"></path> </g> <path style="fill:#51565F;" d="M448,503.467c-2.56,0-4.267-1.707-4.267-4.267v-29.867h-128V499.2c0,2.56-1.707,4.267-4.267,4.267 s-4.267-1.707-4.267-4.267v-34.133c0-2.56,1.707-4.267,4.267-4.267H448c2.56,0,4.267,1.707,4.267,4.267V499.2 C452.267,501.76,450.56,503.467,448,503.467z M192,503.467c-2.56,0-4.267-1.707-4.267-4.267v-29.867h-128V499.2 c0,2.56-1.707,4.267-4.267,4.267c-2.56,0-4.267-1.707-4.267-4.267v-34.133c0-2.56,1.707-4.267,4.267-4.267H192 c2.56,0,4.267,1.707,4.267,4.267V499.2C196.267,501.76,194.56,503.467,192,503.467z M328.533,435.2c-2.56,0-4.267-1.707-4.267-4.267 v-42.667c0-29.867,17.92-45.227,18.773-46.08l59.733-59.733c5.973-5.973,12.8-8.533,20.48-9.387c7.68,0,15.36,2.56,20.48,8.533 c5.973,5.973,8.533,12.8,8.533,20.48c0,7.68-3.413,14.507-9.387,20.48l-42.667,42.667c-1.707,1.707-4.267,1.707-5.973,0 c-1.707-1.707-1.707-4.267,0-5.973l42.667-42.667c4.267-4.267,6.827-9.387,6.827-14.507s-1.707-10.24-5.973-14.507 s-9.387-5.973-14.507-5.973c-5.12,0-10.24,2.56-14.507,6.827l-59.733,59.733c0,0-16.213,14.507-16.213,39.253v42.667 C332.8,433.493,331.093,435.2,328.533,435.2z M174.933,435.2c-2.56,0-4.267-1.707-4.267-4.267v-42.667 c0-25.6-15.36-39.253-15.36-39.253L95.573,289.28c-4.267-4.267-9.387-6.827-14.507-6.827c-5.12,0-10.24,1.707-14.507,5.973 c-4.267,4.267-5.973,9.387-5.973,14.507c0,5.12,2.56,10.24,6.827,14.507l42.667,42.667c1.707,1.707,1.707,4.267,0,5.973 c-1.707,1.707-4.267,1.707-5.973,0L61.44,323.414c-5.973-5.973-8.533-12.8-9.387-20.48c0-7.68,2.56-15.36,8.533-20.48 c5.973-5.973,12.8-8.533,20.48-8.533s14.507,3.413,20.48,9.387l59.733,59.733c0.853,0.853,17.92,16.213,17.92,46.08v42.667 C179.2,433.493,177.493,435.2,174.933,435.2z M413.867,426.667c-0.853,0-2.56,0-3.413-0.853c-1.707-1.707-1.707-4.267,0-5.973 l68.267-68.267c0.853-0.853,16.213-13.653,16.213-39.253v-128c0-11.947-9.387-21.333-21.333-21.333 c-11.947,0-21.333,9.387-21.333,21.333v67.413c0,2.56-1.707,4.267-4.267,4.267s-4.267-1.707-4.267-4.267v-68.266 c0-16.213,13.653-29.867,29.867-29.867c16.213,0,29.867,13.653,29.867,29.867v128c0,29.867-17.92,45.227-18.773,46.08 l-68.267,68.267C416.427,426.667,414.72,426.667,413.867,426.667z M89.6,426.667c-0.853,0-2.56,0-3.413-0.853L17.92,357.547 c-0.853,0-17.92-15.36-17.92-46.08v-128C0,167.253,13.653,153.6,29.867,153.6s29.867,13.653,29.867,29.867v67.413 c0,2.56-1.707,4.267-4.267,4.267c-2.56,0-4.267-1.707-4.267-4.267v-67.413c0-11.947-9.387-21.333-21.333-21.333 S8.533,171.52,8.533,183.467v128c0,25.6,15.36,39.253,15.36,39.253l68.267,68.267c1.707,1.707,1.707,4.267,0,5.973 C92.16,426.667,90.453,426.667,89.6,426.667z M251.733,264.533c-72.533,0-132.267-59.733-132.267-132.267S179.2,0,251.733,0 S384,59.733,384,132.267S324.267,264.533,251.733,264.533z M251.733,8.533C183.467,8.533,128,64,128,132.267 S183.467,256,251.733,256s123.733-55.467,123.733-123.733S320,8.533,251.733,8.533z M251.733,196.267 c-2.56,0-4.267-1.707-4.267-4.267v-4.267c-14.507-1.707-25.6-14.507-25.6-29.867c0-2.56,1.707-4.267,4.267-4.267 s4.267,1.707,4.267,4.267c0,11.947,9.387,21.333,21.333,21.333c11.947,0,21.333-9.387,21.333-21.333 c0-11.947-9.387-21.333-21.333-21.333c-16.213,0-29.867-13.653-29.867-29.867c0-15.36,11.093-27.307,25.6-29.867v-4.267 c0-2.56,1.707-4.267,4.267-4.267c2.56,0,4.267,1.707,4.267,4.267V76.8c14.507,1.707,25.6,14.507,25.6,29.867 c0,2.56-1.707,4.267-4.267,4.267s-4.267-1.707-4.267-4.267c0-11.947-9.387-21.333-21.333-21.333 c-11.947,0-21.333,9.387-21.333,21.333S239.787,128,251.733,128c16.213,0,29.867,13.653,29.867,29.867 c0,15.36-11.093,27.307-25.6,29.867V192C256,194.56,254.293,196.267,251.733,196.267z"></path> </g></svg>